<?xml version="1.0" encoding="UTF-8" standalone="no"?>
<!-- Created with Inkscape (http://www.inkscape.org/) -->

<svg
   xmlns:dc="http://purl.org/dc/elements/1.1/"
   xmlns:cc="http://creativecommons.org/ns#"
   xmlns:rdf="http://www.w3.org/1999/02/22-rdf-syntax-ns#"
   xmlns:svg="http://www.w3.org/2000/svg"
   xmlns="http://www.w3.org/2000/svg"
   xmlns:sodipodi="http://sodipodi.sourceforge.net/DTD/sodipodi-0.dtd"
   xmlns:inkscape="http://www.inkscape.org/namespaces/inkscape"
   width="48.002541"
   height="47.995785"
   id="svg6761"
   version="1.1"
   inkscape:version="0.48.4 r9939"
   sodipodi:docname="miniltlogo.svg">
  <defs
     id="defs6763">
    <clipPath
       clipPathUnits="userSpaceOnUse"
       id="clipPath2999">
      <path
         inkscape:connector-curvature="0"
         d="M 0,918 1368,918 1368,0 0,0 0,918 z"
         id="path3001" />
    </clipPath>
    <filter
       id="filter3910"
       inkscape:label="Invert"
       x="0"
       y="0"
       width="1"
       height="1"
       inkscape:menu="Color"
       inkscape:menu-tooltip="Invert colors"
       color-interpolation-filters="sRGB">
      <feColorMatrix
         id="feColorMatrix3912"
         type="saturate"
         values="1"
         result="fbSourceGraphic" />
      <feColorMatrix
         id="feColorMatrix3914"
         in="fbSourceGraphic"
         values="-1 0 0 0 1 0 -1 0 0 1 0 0 -1 0 1 0 0 0 1 0 " />
    </filter>
  </defs>
  <sodipodi:namedview
     id="base"
     pagecolor="#ffffff"
     bordercolor="#666666"
     borderopacity="1.0"
     inkscape:pageopacity="0.0"
     inkscape:pageshadow="2"
     inkscape:zoom="11.2"
     inkscape:cx="22.235483"
     inkscape:cy="23.084022"
     inkscape:document-units="px"
     inkscape:current-layer="layer1"
     showgrid="false"
     fit-margin-top="0"
     fit-margin-left="0"
     fit-margin-right="0"
     fit-margin-bottom="0"
     inkscape:window-width="1058"
     inkscape:window-height="585"
     inkscape:window-x="89"
     inkscape:window-y="43"
     inkscape:window-maximized="0" />
  <metadata
     id="metadata6766">
    <rdf:RDF>
      <cc:Work
         rdf:about="">
        <dc:format>image/svg+xml</dc:format>
        <dc:type
           rdf:resource="http://purl.org/dc/dcmitype/StillImage" />
        <dc:title></dc:title>
      </cc:Work>
    </rdf:RDF>
  </metadata>
  <g
     inkscape:label="Layer 1"
     inkscape:groupmode="layer"
     id="layer1"
     transform="translate(-246.9105,-500.30756)">
    <g
       id="g2995"
       transform="matrix(0.21613638,0,0,-0.21613638,196.04342,585.16853)"
       style="filter:url(#filter3910)">
      <g
         id="g2997"
         clip-path="url(#clipPath2999)">
        <g
           id="g3003"
           transform="translate(448.6172,281.4883)">
          <path
             d="m 0,0 c 0,-56.563 -45.852,-102.412 -102.415,-102.412 -56.563,0 -102.415,45.849 -102.415,102.412 0,56.563 45.852,102.416 102.415,102.416 C -45.853,102.416 -0.001,56.563 0,0 z"
             style="fill:none;stroke:#373535;stroke-width:2;stroke-linecap:butt;stroke-linejoin:miter;stroke-miterlimit:10;stroke-opacity:1;stroke-dasharray:none"
             id="path3005"
             inkscape:connector-curvature="0" />
        </g>
        <g
           id="g3007"
           transform="translate(403.127,359.1309)">
          <path
             d="m 0,0 -21.306,-29.088 -3.42,2.502 L -3.422,2.507 0,0 z"
             style="fill:#373535;fill-opacity:1;fill-rule:nonzero;stroke:none"
             id="path3009"
             inkscape:connector-curvature="0" />
        </g>
        <g
           id="g3011"
           transform="translate(430.96,327.7012)">
          <path
             d="m 0,0 -30.268,-18.795 -1.67,3.13 L -1.955,3.146 0,0 z"
             style="fill:#373535;fill-opacity:1;fill-rule:nonzero;stroke:none"
             id="path3013"
             inkscape:connector-curvature="0" />
        </g>
        <g
           id="g3015"
           transform="translate(433.6938,322.7559)">
          <path
             d="m 0,0 -30.567,-18.802 -1.654,3.156 L -1.954,3.148 0,0 z"
             style="fill:#373535;fill-opacity:1;fill-rule:nonzero;stroke:none"
             id="path3017"
             inkscape:connector-curvature="0" />
        </g>
        <g
           id="g3019"
           transform="translate(442.749,284.2744)">
          <path
             d="M 0,0 -35.291,0.11 -35.282,3.297 0.01,3.189 0,0 z"
             style="fill:#373535;fill-opacity:1;fill-rule:nonzero;stroke:none"
             id="path3021"
             inkscape:connector-curvature="0" />
        </g>
        <g
           id="g3023"
           transform="translate(442.7339,279.2646)">
          <path
             d="M 0,0 -35.086,0.106 -35.079,3.297 0.009,3.188 0,0 z"
             style="fill:#373535;fill-opacity:1;fill-rule:nonzero;stroke:none"
             id="path3025"
             inkscape:connector-curvature="0" />
        </g>
        <g
           id="g3027"
           transform="translate(442.7192,274.2559)">
          <path
             d="M 0,0 -35.266,0.106 -35.255,3.298 0.007,3.189 0,0 z"
             style="fill:#373535;fill-opacity:1;fill-rule:nonzero;stroke:none"
             id="path3029"
             inkscape:connector-curvature="0" />
        </g>
        <g
           id="g3031"
           transform="translate(430.6367,234.8779)">
          <path
             d="m 0,0 -29.352,19.838 1.347,2.479 L 1.676,2.476 0,0 z"
             style="fill:#373535;fill-opacity:1;fill-rule:nonzero;stroke:none"
             id="path3033"
             inkscape:connector-curvature="0" />
        </g>
        <g
           id="g3035"
           transform="translate(428.0947,231.0801)">
          <path
             d="M 0,0 -29.096,19.665 -27.42,22.146 1.673,2.48 0,0 z"
             style="fill:#373535;fill-opacity:1;fill-rule:nonzero;stroke:none"
             id="path3037"
             inkscape:connector-curvature="0" />
        </g>
        <g
           id="g3039"
           transform="translate(425.6113,227.0889)">
          <path
             d="M 0,0 -29.237,19.761 -27.563,22.24 1.673,2.48 0,0 z"
             style="fill:#373535;fill-opacity:1;fill-rule:nonzero;stroke:none"
             id="path3041"
             inkscape:connector-curvature="0" />
        </g>
        <g
           id="g3043"
           transform="translate(423.0225,222.9385)">
          <path
             d="m 0,0 -29.279,19.791 1.675,2.478 L 1.676,2.48 0,0 z"
             style="fill:#373535;fill-opacity:1;fill-rule:nonzero;stroke:none"
             id="path3045"
             inkscape:connector-curvature="0" />
        </g>
        <g
           id="g3047"
           transform="translate(377.353,229.5361)">
          <path
             d="m 0,0 25.02,-26.389 -2.477,-2.005 -12.368,13.21 C 6.777,-11.568 3.75,-8.288 1.012,-5.019 L 0.954,-5.056 c 1.619,-3.89 3.171,-8.265 4.745,-12.811 L 11.44,-34.479 8.593,-35.816 -2.827,-1.737 0,0 z"
             style="fill:#373535;fill-opacity:1;fill-rule:nonzero;stroke:none"
             id="path3049"
             inkscape:connector-curvature="0" />
        </g>
        <g
           id="g3051"
           transform="translate(349.6167,221.6123)">
          <path
             d="M 0,0 8.341,-35.772 4.974,-35.814 0.986,-18.19 c -1.101,4.828 -2.051,9.181 -2.751,13.38 l -0.071,-0.002 c -0.628,-4.161 -1.573,-8.7 -2.587,-13.395 l -3.856,-17.775 -3.332,-0.043 8.174,35.984 L 0,0 z"
             style="fill:#373535;fill-opacity:1;fill-rule:nonzero;stroke:none"
             id="path3053"
             inkscape:connector-curvature="0" />
        </g>
        <g
           id="g3055"
           transform="translate(333.791,186.2227)">
          <path
             d="M 0,0 2.823,36.344 5.929,36.1 2.964,-0.359 0,0 z"
             style="fill:#373535;fill-opacity:1;fill-rule:nonzero;stroke:none"
             id="path3057"
             inkscape:connector-curvature="0" />
        </g>
        <g
           id="g3059"
           transform="translate(320.0566,228.4727)">
          <path
             d="m 0,0 -15.225,-33.618 -2.459,1.232 7.503,16.337 c 2.133,4.661 4.082,8.846 6.113,12.774 l -0.048,0.032 c -2.908,-3.262 -6.253,-6.694 -9.745,-10.232 l -13.215,-13.377 -2.287,1.558 L -2.358,1.608 0,0 z"
             style="fill:#373535;fill-opacity:1;fill-rule:nonzero;stroke:none"
             id="path3061"
             inkscape:connector-curvature="0" />
        </g>
        <g
           id="g3063"
           transform="translate(287.894,205.2861)">
          <path
             d="M 0,0 21.474,30.58 23.59,29.093 2.117,-1.487 0,0 z"
             style="fill:#373535;fill-opacity:1;fill-rule:nonzero;stroke:none"
             id="path3065"
             inkscape:connector-curvature="0" />
        </g>
        <g
           id="g3067"
           transform="translate(284.5693,207.6221)">
          <path
             d="M 0,0 21.722,30.936 23.839,29.447 2.116,-1.487 0,0 z"
             style="fill:#373535;fill-opacity:1;fill-rule:nonzero;stroke:none"
             id="path3069"
             inkscape:connector-curvature="0" />
        </g>
        <g
           id="g3071"
           transform="translate(298.0386,249.3105)">
          <path
             d="m 0,0 -30.026,-23.229 -1.794,2.176 15.066,11.53 c 4.128,3.166 7.86,5.988 11.545,8.543 l -0.028,0.053 c -4.159,-1.529 -8.793,-3.001 -13.606,-4.499 l -18.22,-5.646 -1.317,2.508 L -1.811,2.592 0,0 z"
             style="fill:#373535;fill-opacity:1;fill-rule:nonzero;stroke:none"
             id="path3073"
             inkscape:connector-curvature="0" />
        </g>
        <g
           id="g3075"
           transform="translate(258.2759,243.418)">
          <path
             d="M 0,0 34.039,16.55 35.2,14.167 1.16,-2.386 0,0 z"
             style="fill:#373535;fill-opacity:1;fill-rule:nonzero;stroke:none"
             id="path3077"
             inkscape:connector-curvature="0" />
        </g>
        <g
           id="g3079"
           transform="translate(256.8911,246.8369)">
          <path
             d="M 0,0 34.384,16.695 35.229,14.168 0.895,-2.233 0,0 z"
             style="fill:#373535;fill-opacity:1;fill-rule:nonzero;stroke:none"
             id="path3081"
             inkscape:connector-curvature="0" />
        </g>
        <g
           id="g3083"
           transform="translate(255.5688,250.0596)">
          <path
             d="M 0,0 34.976,16.79 35.693,14.406 1.159,-2.385 0,0 z"
             style="fill:#373535;fill-opacity:1;fill-rule:nonzero;stroke:none"
             id="path3085"
             inkscape:connector-curvature="0" />
        </g>
        <g
           id="g3087"
           transform="translate(250.6001,276.3086)">
          <path
             d="M 0,0 38.384,1.214 38.483,-1.727 0.206,-3.001 0,0 z"
             style="fill:#373535;fill-opacity:1;fill-rule:nonzero;stroke:none"
             id="path3089"
             inkscape:connector-curvature="0" />
        </g>
        <g
           id="g3091"
           transform="translate(289.6299,292.1084)">
          <path
             d="m 0,0 -9.333,-3.072 c -3.197,-1.203 -5.271,-1.96 -7.459,-2.685 l 0,-0.068 c 2.198,-0.626 4.227,-1.252 7.552,-2.411 l 8.338,-2.674 0.027,-3.38 -19.222,6.822 -19.069,-6.822 0,3.651 9.235,2.828 c 2.466,0.864 4.373,1.52 6.392,2.141 l 0,0.1 c -2.253,0.626 -4,1.187 -6.423,2.014 l -8.906,3.045 0.61,3.144 17.855,-6.559 L 0.712,3.304 0,0 z"
             style="fill:#373535;fill-opacity:1;fill-rule:nonzero;stroke:none"
             id="path3093"
             inkscape:connector-curvature="0" />
        </g>
        <g
           id="g3095"
           transform="translate(300.2891,316.5498)">
          <path
             d="m 0,0 -8.678,1.493 c -3.568,0.542 -5.868,0.919 -8.259,1.38 l -0.032,-0.06 c 1.712,-1.702 3.267,-3.317 5.75,-6.084 l 5.604,-5.95 -1.487,-3.281 -13.755,15.511 -19.676,3.201 1.565,3.135 8.851,-1.591 c 2.717,-0.483 4.81,-0.863 6.994,-1.333 l 0.051,0.093 c -1.764,1.729 -3.093,3.14 -4.911,5.143 l -5.826,6.417 1.926,2.788 L -19.339,6.403 2.26,3.032 0,0 z"
             style="fill:#373535;fill-opacity:1;fill-rule:nonzero;stroke:none"
             id="path3097"
             inkscape:connector-curvature="0" />
        </g>
        <g
           id="g3099"
           transform="translate(321.0312,334.0488)">
          <path
             d="m 0,0 -6.562,5.616 c -2.574,2.113 -4.223,3.497 -5.896,4.991 l -0.058,-0.034 c 0.476,-2.169 0.873,-4.197 1.408,-7.589 l 1.783,-8.816 -2.977,-2.464 -3.229,20.859 -15.117,12.855 2.728,1.899 7.46,-6.588 c 1.927,-1.665 3.404,-2.956 4.906,-4.36 l 0.092,0.05 c -0.505,2.22 -0.829,3.976 -1.233,6.438 l -1.787,10.04 2.878,1.425 3.076,-19.748 L 3.018,1.703 0,0 z"
             style="fill:#373535;fill-opacity:1;fill-rule:nonzero;stroke:none"
             id="path3101"
             inkscape:connector-curvature="0" />
        </g>
        <g
           id="g3103"
           transform="translate(309.3223,370.1152)">
          <path
             d="M 0,0 18.406,-33.039 15.871,-34.298 -2.961,-1.307 0,0 z"
             style="fill:#373535;fill-opacity:1;fill-rule:nonzero;stroke:none"
             id="path3105"
             inkscape:connector-curvature="0" />
        </g>
        <g
           id="g3107"
           transform="translate(350.0454,340.6377)">
          <path
             d="m 0,0 -2.754,7.75 c -1.201,3.174 -1.954,5.231 -2.675,7.402 l -0.069,0 C -6.148,12.981 -6.798,10.976 -8,7.693 l -2.776,-8.238 -3.642,-0.742 7.276,19.724 -6.587,17.994 3.374,0.22 2.938,-8.473 c 0.856,-2.45 1.507,-4.343 2.125,-6.345 l 0.104,0 c 0.651,2.225 1.233,3.95 2.089,6.345 L 0.056,36.975 3.358,36.651 -3.543,18.713 3.482,-0.545 0,0 z"
             style="fill:#373535;fill-opacity:1;fill-rule:nonzero;stroke:none"
             id="path3109"
             inkscape:connector-curvature="0" />
        </g>
        <g
           id="g3111"
           transform="translate(357.5176,376.999)">
          <path
             d="m 0,0 0,-36.906 -2.984,0 0,37.196 L 0,0 z"
             style="fill:#373535;fill-opacity:1;fill-rule:nonzero;stroke:none"
             id="path3113"
             inkscape:connector-curvature="0" />
        </g>
        <g
           id="g3115"
           transform="translate(362.2007,376.3535)">
          <path
             d="m 0,0 0,-37.357 -2.983,0.641 0,37.153 L 0,0 z"
             style="fill:#373535;fill-opacity:1;fill-rule:nonzero;stroke:none"
             id="path3117"
             inkscape:connector-curvature="0" />
        </g>
        <g
           id="g3119"
           transform="translate(442.7471,281.4697)">
          <path
             d="m 0,0 c 0,-53.096 -43.044,-96.14 -96.141,-96.14 -53.098,0 -96.142,43.044 -96.142,96.14 -0.001,53.099 43.043,96.143 96.142,96.143 C -43.044,96.143 0,53.099 0,0 z"
             style="fill:none;stroke:#373535;stroke-width:1.88999999;stroke-linecap:butt;stroke-linejoin:miter;stroke-miterlimit:10;stroke-opacity:1;stroke-dasharray:none"
             id="path3121"
             inkscape:connector-curvature="0" />
        </g>
        <g
           id="g3123"
           transform="translate(452.0151,281.5957)">
          <path
             d="m 0,0 c 0,-58.327 -47.283,-105.611 -105.614,-105.611 -58.332,0 -105.617,47.284 -105.617,105.611 0,58.332 47.284,105.616 105.616,105.616 C -47.284,105.616 0,58.332 0,0 z"
             style="fill:none;stroke:#373535;stroke-width:2;stroke-linecap:butt;stroke-linejoin:miter;stroke-miterlimit:10;stroke-opacity:1;stroke-dasharray:none"
             id="path3125"
             inkscape:connector-curvature="0" />
        </g>
        <g
           id="g3127"
           transform="translate(455.9409,281.5957)">
          <path
             d="m 0,0 c 0,-60.495 -49.042,-109.536 -109.54,-109.536 -60.5,0 -109.542,49.041 -109.542,109.536 0,60.501 49.041,109.543 109.541,109.543 C -49.043,109.543 0,60.501 0,0 z"
             style="fill:none;stroke:#373535;stroke-width:3;stroke-linecap:butt;stroke-linejoin:miter;stroke-miterlimit:10;stroke-opacity:1;stroke-dasharray:none"
             id="path3129"
             inkscape:connector-curvature="0" />
        </g>
        <g
           id="g3131"
           transform="translate(407.6514,281.1514)">
          <path
             d="m 0,0 c 0,-32.867 -26.644,-59.513 -59.514,-59.513 -32.868,0 -59.514,26.646 -59.514,59.513 0,32.872 26.645,59.516 59.513,59.516 C -26.645,59.516 0,32.872 0,0 z"
             style="fill:none;stroke:#373535;stroke-width:3;stroke-linecap:butt;stroke-linejoin:miter;stroke-miterlimit:10;stroke-opacity:1;stroke-dasharray:none"
             id="path3133"
             inkscape:connector-curvature="0" />
        </g>
        <g
           id="g3135"
           transform="translate(402.2856,281.6299)">
          <path
             d="m 0,0 c 0,-29.923 -24.257,-54.179 -54.181,-54.179 -29.922,0 -54.179,24.256 -54.179,54.179 0,29.926 24.256,54.183 54.178,54.183 C -24.257,54.183 -0.001,29.926 0,0"
             style="fill:#373535;fill-opacity:1;fill-rule:nonzero;stroke:none"
             id="path3137"
             inkscape:connector-curvature="0" />
        </g>
        <g
           id="g3139"
           transform="translate(402.2856,281.6299)">
          <path
             d="m 0,0 c 0,-29.923 -24.257,-54.179 -54.181,-54.179 -29.922,0 -54.179,24.256 -54.179,54.179 0,29.926 24.256,54.183 54.178,54.183 C -24.257,54.183 -0.001,29.926 0,0 z"
             style="fill:none;stroke:#373535;stroke-width:4;stroke-linecap:butt;stroke-linejoin:miter;stroke-miterlimit:10;stroke-opacity:1;stroke-dasharray:none"
             id="path3141"
             inkscape:connector-curvature="0" />
        </g>
      </g>
    </g>
  </g>
</svg>
